# xmcd
#
# Track frame offsets: 
#        182
#        19612
#        39425
#        60337
#        82892
#        104195
#        129672
#        156905
#        179930
#        198925
#        216012
#        239317
#        255827
#
# Disc length: 3742 seconds
#
# Revision: 1
# Processed by: cddbd v1.5.2PL0 Copyright (c) Steve Scherf et al.
# Submitted via: ExactAudioCopy v0.99pb5
#
DISCID=ac0e9c0d
DTITLE=Gabriela Anders - wanting
DYEAR=1998
DGENRE=Vocal
TTITLE0=Fire Of Love
TTITLE1=The Girl from Ipanema
TTITLE2=Wanting
TTITLE3=Forever
TTITLE4=You Know What It's Like
TTITLE5=Seven Days
TTITLE6=Just An Hour
TTITLE7=Fantasia
TTITLE8=I'll Be Loving You
TTITLE9=Love Is So Unkind
TTITLE10=Feels So Good
TTITLE11=Brasileira
TTITLE12=In Vain
EXTD=YEAR: 1998
EXTT0=
EXTT1=
EXTT2=
EXTT3=
EXTT4=
EXTT5=
EXTT6=
EXTT7=
EXTT8=
EXTT9=
EXTT10=
EXTT11=
EXTT12=
PLAYORDER=
